Model2392_S4_states																							
version=1																							
nRows=83																							
nColumns=24																							
inDegrees=yes																							
																							
"Units are S.I. units (second, meters, Newtons, ...)"																							
Angles are in degrees.																							
																							
endheader																							
time	pelvis_tilt	pelvis_list	pelvis_rotation	pelvis_tx	pelvis_ty	pelvis_tz	hip_flexion_r	hip_adduction_r	hip_rotation_r	knee_angle_r	ankle_angle_r	subtalar_angle_r	mtp_angle_r	hip_flexion_l	hip_adduction_l	hip_rotation_l	knee_angle_l	ankle_angle_l	subtalar_angle_l	mtp_angle_l	lumbar_extension	lumbar_bending	lumbar_rotation
0.98	0	0	0	0	0.95	0	-10.43895884	0	0	-9.65434665	12.65367782	0	0	25.54601377	0	0	-10.78671881	5.76120778	0	0	0	0	0
0.9800056	0	0	0	0	0.95	0	-10.43935732	0	0	-9.65446283	12.65364798	0	0	25.54612966	0	0	-10.78608873	5.76159477	0	0	0	0	0
0.9800112	0	0	0	0	0.95	0	-10.43975635	0	0	-9.6545779	12.65361939	0	0	25.54624549	0	0	-10.78545862	5.76198318	0	0	0	0	0
0.98002593	0	0	0	0	0.95	0	-10.44080642	0	0	-9.65487732	12.65354999	0	0	25.54654953	0	0	-10.7838028	5.7630103	0	0	0	0	0
0.98004065	0	0	0	0	0.95	0	-10.4418575	0	0	-9.65517494	12.65348787	0	0	25.5468532	0	0	-10.78214705	5.7640463	0	0	0	0	0
0.98006296	0	0	0	0	0.95	0	-10.44345121	0	0	-9.65562496	12.65340353	0	0	25.54731279	0	0	-10.77963807	5.76563183	0	0	0	0	0
0.98010091	0	0	0	0	0.95	0	-10.4461627	0	0	-9.65638955	12.65327122	0	0	25.54809306	0	0	-10.77537215	5.76836543	0	0	0	0	0
0.98017167	0	0	0	0	0.95	0	-10.45122072	0	0	-9.65781308	12.65298491	0	0	25.54954398	0	0	-10.76742176	5.77355527	0	0	0	0	0
0.98026196	0	0	0	0	0.95	0	-10.45767839	0	0	-9.65962023	12.65239056	0	0	25.55138778	0	0	-10.75728204	5.78027429	0	0	0	0	0
0.98037184	0	0	0	0	0.95	0	-10.46554376	0	0	-9.66179659	12.65114018	0	0	25.55361913	0	0	-10.74494323	5.78848077	0	0	0	0	0
0.98048173	0	0	0	0	0.95	0	-10.4734171	0	0	-9.6639428	12.64921416	0	0	25.55583574	0	0	-10.73259959	5.79663174	0	0	0	0	0
0.98065044	0	0	0	0	0.95	0	-10.48552053	0	0	-9.66717921	12.64491506	0	0	25.5592094	0	0	-10.71363224	5.80894289	0	0	0	0	0
0.98081915	0	0	0	0	0.95	0	-10.49763969	0	0	-9.67035162	12.63907729	0	0	25.56254742	0	0	-10.69464621	5.82098505	0	0	0	0	0
0.98102542	0	0	0	0	0.95	0	-10.51247364	0	0	-9.67415782	12.63004096	0	0	25.56658216	0	0	-10.67141618	5.83541241	0	0	0	0	0
0.98127678	0	0	0	0	0.95	0	-10.53056907	0	0	-9.67870965	12.61648923	0	0	25.57143425	0	0	-10.64309959	5.8527325	0	0	0	0	0
0.9816586	0	0	0	0	0.95	0	-10.55808201	0	0	-9.68548594	12.59114031	0	0	25.5786779	0	0	-10.60010571	5.87884985	0	0	0	0	0
0.98212493	0	0	0	0	0.95	0	-10.59170661	0	0	-9.69359937	12.55318979	0	0	25.58732813	0	0	-10.54766652	5.9107333	0	0	0	0	0
0.98270151	0	0	0	0	0.95	0	-10.63328125	0	0	-9.70346974	12.49671076	0	0	25.59772884	0	0	-10.48295519	5.94996459	0	0	0	0	0
0.98327808	0	0	0	0	0.95	0	-10.67482236	0	0	-9.71325858	12.43086211	0	0	25.60780024	0	0	-10.41835613	5.98822316	0	0	0	0	0
0.98411694	0	0	0	0	0.95	0	-10.73512338	0	0	-9.72757925	12.32121916	0	0	25.62185382	0	0	-10.32450388	6.04029709	0	0	0	0	0
0.98534185	0	0	0	0	0.95	0	-10.82266328	0	0	-9.74934399	12.14087281	0	0	25.64106223	0	0	-10.18757587	6.10427818	0	0	0	0	0
0.98685069	0	0	0	0	0.95	0	-10.92919241	0	0	-9.77910714	11.90765362	0	0	25.66251145	0	0	-10.01886867	6.15644	0	0	0	0	0
0.98867194	0	0	0	0	0.95	0	-11.05510099	0	0	-9.82208725	11.64971873	0	0	25.68511	0	0	-9.81523559	6.17410787	0	0	0	0	0
0.98964789	0	0	0	0	0.95	0	-11.12111889	0	0	-9.84922399	11.53625064	0	0	25.69576597	0	0	-9.70635601	6.16353695	0	0	0	0	0
0.98997967	0	0	0	0	0.95	0	-11.14331153	0	0	-9.85917801	11.50283166	0	0	25.69916487	0	0	-9.66942729	6.15706141	0	0	0	0	0
0.99001795	0	0	0	0	0.95	0	-11.14586357	0	0	-9.86035094	11.49915692	0	0	25.69954985	0	0	-9.66517038	6.15622668	0	0	0	0	0
0.99005623	0	0	0	0	0.95	0	-11.14841388	0	0	-9.86152897	11.49552026	0	0	25.69993335	0	0	-9.66091427	6.15537426	0	0	0	0	0
0.99024762	0	0	0	0	0.95	0	-11.16113923	0	0	-9.86749605	11.47791389	0	0	25.70182888	0	0	-9.63964637	6.15085144	0	0	0	0	0
0.99120458	0	0	0	0	0.95	0	-11.22410502	0	0	-9.89927955	11.40477976	0	0	25.71076874	0	0	-9.5336872	6.12227512	0	0	0	0	0
0.99284165	0	0	0	0	0.95	0	-11.3292497	0	0	-9.96119796	11.33826766	0	0	25.72411043	0	0	-9.35454787	6.05627666	0	0	0	0	0
0.99447872	0	0	0	0	0.95	0	-11.43124107	0	0	-10.03213588	11.33979691	0	0	25.73527188	0	0	-9.1794765	5.98166644	0	0	0	0	0
0.9957858	0	0	0	0	0.95	0	-11.51056569	0	0	-10.09449467	11.38005354	0	0	25.74285341	0	0	-9.04371658	5.92629239	0	0	0	0	0
0.99709287	0	0	0	0	0.95	0	-11.58818477	0	0	-10.16115188	11.44445398	0	0	25.74943495	0	0	-8.91234541	5.88214831	0	0	0	0	0
0.99839994	0	0	0	0	0.95	0	-11.66425945	0	0	-10.23135249	11.52258274	0	0	25.75515145	0	0	-8.78595636	5.85428501	0	0	0	0	0
0.99970702	0	0	0	0	0.95	0	-11.73894842	0	0	-10.30435766	11.60410086	0	0	25.76009907	0	0	-8.66495803	5.84568583	0	0	0	0	0
0.9999453	0	0	0	0	0.95	0	-11.75242655	0	0	-10.31791508	11.61856303	0	0	25.76092289	0	0	-8.64349964	5.84628541	0	0	0	0	0
1.00003925	0	0	0	0	0.95	0	-11.75772954	0	0	-10.32327902	11.62419666	0	0	25.76124119	0	0	-8.63509033	5.84670428	0	0	0	0	0
1.0001332	0	0	0	0	0.95	0	-11.76302633	0	0	-10.32865307	11.62978675	0	0	25.76155581	0	0	-8.62671001	5.84722567	0	0	0	0	0
1.00060294	0	0	0	0	0.95	0	-11.78941901	0	0	-10.35566696	11.65697745	0	0	25.76307386	0	0	-8.58524319	5.85134802	0	0	0	0	0
1.00194877	0	0	0	0	0.95	0	-11.86423439	0	0	-10.43419889	11.72535639	0	0	25.76690946	0	0	-8.4704212	5.8761294	0	0	0	0	0
1.0032946	0	0	0	0	0.95	0	-11.93794315	0	0	-10.51405423	11.77482708	0	0	25.76994536	0	0	-8.36131901	5.91627909	0	0	0	0	0
1.00501773	0	0	0	0	0.95	0	-12.03079266	0	0	-10.61777843	11.8051023	0	0	25.77252793	0	0	-8.22937007	5.97933045	0	0	0	0	0
1.00674087	0	0	0	0	0.95	0	-12.12194202	0	0	-10.72304422	11.79838485	0	0	25.77343555	0	0	-8.10520453	6.04061546	0	0	0	0	0
1.00846401	0	0	0	0	0.95	0	-12.21130497	0	0	-10.83015306	11.76196472	0	0	25.77245619	0	0	-7.98791956	6.08570002	0	0	0	0	0
1.00935583	0	0	0	0	0.95	0	-12.25680356	0	0	-10.8865113	11.73554422	0	0	25.77115763	0	0	-7.92970688	6.09919452	0	0	0	0	0
1.00988653	0	0	0	0	0.95	0	-12.2836214	0	0	-10.92040696	11.71853813	0	0	25.77012194	0	0	-7.89584353	6.10355042	0	0	0	0	0
1.01002221	0	0	0	0	0.95	0	-12.29044597	0	0	-10.92911939	11.71410999	0	0	25.7698255	0	0	-7.88727848	6.10420942	0	0	0	0	0
1.0101579	0	0	0	0	0.95	0	-12.29725744	0	0	-10.93785158	11.70966464	0	0	25.76951617	0	0	-7.87875108	6.10468182	0	0	0	0	0
1.0108363	0	0	0	0	0.95	0	-12.33111467	0	0	-10.98182329	11.68744779	0	0	25.76777664	0	0	-7.83668083	6.10424134	0	0	0	0	0
1.012321	0	0	0	0	0.95	0	-12.4039946	0	0	-11.08006518	11.6423577	0	0	25.7628707	0	0	-7.74798612	6.0874192	0	0	0	0	0
1.0138057	0	0	0	0	0.95	0	-12.47509258	0	0	-11.18147039	11.60850742	0	0	25.75654404	0	0	-7.66424302	6.0512678	0	0	0	0	0
1.01569888	0	0	0	0	0.95	0	-12.56299843	0	0	-11.31592464	11.58984434	0	0	25.74665786	0	0	-7.56552482	5.98510134	0	0	0	0	0
1.01759207	0	0	0	0	0.95	0	-12.64772092	0	0	-11.45637723	11.60145013	0	0	25.73506568	0	0	-7.4770658	5.90853251	0	0	0	0	0
1.01948526	0	0	0	0	0.95	0	-12.72928804	0	0	-11.60253655	11.63846814	0	0	25.72209007	0	0	-7.40003047	5.83396008	0	0	0	0	0
1.01979698	0	0	0	0	0.95	0	-12.74242414	0	0	-11.62710297	11.6462968	0	0	25.71983798	0	0	-7.38850085	5.82254671	0	0	0	0	0
1.01996835	0	0	0	0	0.95	0	-12.74961146	0	0	-11.64066513	11.65074754	0	0	25.71858675	0	0	-7.38230391	5.81640978	0	0	0	0	0
1.02001403	0	0	0	0	0.95	0	-12.75152318	0	0	-11.64428684	11.65194972	0	0	25.71825167	0	0	-7.38066909	5.8147911	0	0	0	0	0
1.02005971	0	0	0	0	0.95	0	-12.75343318	0	0	-11.64791131	11.65315817	0	0	25.71791594	0	0	-7.37904144	5.81317978	0	0	0	0	0
1.02028812	0	0	0	0	0.95	0	-12.76295734	0	0	-11.66607453	11.65928775	0	0	25.71622761	0	0	-7.37101097	5.80523562	0	0	0	0	0
1.02143015	0	0	0	0	0.95	0	-12.80994071	0	0	-11.75786719	11.69139001	0	0	25.70754904	0	0	-7.33356523	5.76847284	0	0	0	0	0
1.02359791	0	0	0	0	0.95	0	-12.89625872	0	0	-11.93616584	11.75153305	0	0	25.69002244	0	0	-7.27489772	5.71181694	0	0	0	0	0
1.02576567	0	0	0	0	0.95	0	-12.97887123	0	0	-12.11920805	11.79923351	0	0	25.67109306	0	0	-7.2320844	5.66621407	0	0	0	0	0
1.02793343	0	0	0	0	0.95	0	-13.05775021	0	0	-12.30670629	11.8281014	0	0	25.6506289	0	0	-7.20418622	5.6195179	0	0	0	0	0
1.02869179	0	0	0	0	0.95	0	-13.08444752	0	0	-12.37336275	11.83388808	0	0	25.64307182	0	0	-7.19772998	5.60046807	0	0	0	0	0
1.02954565	0	0	0	0	0.95	0	-13.11394001	0	0	-12.44909591	11.8382372	0	0	25.63429814	0	0	-7.19240539	5.57632423	0	0	0	0	0
1.02985857	0	0	0	0	0.95	0	-13.12459654	0	0	-12.47703583	11.83935865	0	0	25.63101009	0	0	-7.19095606	5.56664725	0	0	0	0	0
1.02998662	0	0	0	0	0.95	0	-13.12893382	0	0	-12.48849872	11.83975651	0	0	25.62965305	0	0	-7.19043921	5.56254859	0	0	0	0	0
1.03000916	0	0	0	0	0.95	0	-13.12969573	0	0	-12.49051788	11.83982313	0	0	25.62941353	0	0	-7.1903528	5.56181872	0	0	0	0	0
1.0300317	0	0	0	0	0.95	0	-13.13045722	0	0	-12.49253758	11.83988877	0	0	25.62917379	0	0	-7.19026775	5.56108627	0	0	0	0	0
1.03014438	0	0	0	0	0.95	0	-13.13425826	0	0	-12.50264404	11.84020261	0	0	25.62797197	0	0	-7.18986285	5.55738509	0	0	0	0	0
1.03070779	0	0	0	0	0.95	0	-13.15310316	0	0	-12.55337703	11.84145265	0	0	25.62188367	0	0	-7.18834308	5.53787936	0	0	0	0	0
1.0318945	0	0	0	0	0.95	0	-13.19191684	0	0	-12.66133879	11.84276423	0	0	25.60862447	0	0	-7.1878549	5.49111354	0	0	0	0	0
1.03347683	0	0	0	0	0.95	0	-13.24180613	0	0	-12.8076203	11.84246811	0	0	25.59004008	0	0	-7.19288895	5.41687184	0	0	0	0	0
1.03566825	0	0	0	0	0.95	0	-13.30736464	0	0	-13.01447644	11.83748047	0	0	25.56271446	0	0	-7.21081146	5.29564699	0	0	0	0	0
1.03785968	0	0	0	0	0.95	0	-13.36879237	0	0	-13.22603743	11.82283392	0	0	25.53375129	0	0	-7.24198579	5.16299029	0	0	0	0	0
1.0387823	0	0	0	0	0.95	0	-13.39340556	0	0	-13.31645632	11.81220406	0	0	25.52111072	0	0	-7.25919444	5.10678999	0	0	0	0	0
1.03933878	0	0	0	0	0.95	0	-13.40788937	0	0	-13.37137312	11.80419673	0	0	25.5133625	0	0	-7.27075432	5.07337855	0	0	0	0	0
1.03968522	0	0	0	0	0.95	0	-13.41676739	0	0	-13.40570425	11.79855176	0	0	25.50849189	0	0	-7.27839858	5.05286348	0	0	0	0	0
1.03996055	0	0	0	0	0.95	0	-13.42374711	0	0	-13.4330683	11.79368687	0	0	25.50459493	0	0	-7.28471832	5.03674687	0	0	0	0	0
1.04001222	0	0	0	0	0.95	0	-13.42504947	0	0	-13.43821159	11.79273562	0	0	25.50386099	0	0	-7.28592843	5.0337425	0	0	0	0	0
1.04006389	0	0	0	0	0.95	0	-13.42634944	0	0	-13.44335734	11.79177213	0	0	25.50312624	0	0	-7.28714612	5.03074484	0	0	0	0	0
1.04032225	0	0	0	0	0.95	0	-13.43281334	0	0	-13.46912306	11.78676938	0	0	25.49944014	0	0	-7.2933482	5.01586113	0	0	0	0	0
1.04161407	0	0	0	0	0.95	0	-13.46422369	0	0	-13.59889354	11.75708008	0	0	25.48069636	0	0	-7.32717359	4.94438776	0	0	0	0	0
